HIERARCHY
ROOT Hips
{
	OFFSET 0.000000 0.000000 0.000000
	CHANNELS 6 Xposition Yposition Zposition Zrotation Yrotation Xrotation 
	JOINT LHipJoint
	{
		OFFSET 0.000000 0.000000 0.000000
		CHANNELS 3 Zrotation Yrotation Xrotation
		JOINT LeftUpLeg
		{
			OFFSET 1.363060 -1.794630 0.839290
			CHANNELS 3 Zrotation Yrotation Xrotation
			JOINT LeftLeg
			{
				OFFSET 2.448110 -6.726130 0.000000
				CHANNELS 3 Zrotation Yrotation Xrotation
				JOINT LeftFoot
				{
					OFFSET 2.562200 -7.039590 0.000000
					CHANNELS 3 Zrotation Yrotation Xrotation
					JOINT LeftToeBase
					{
						OFFSET 0.157640 -0.433110 2.322550
						CHANNELS 3 Zrotation Yrotation Xrotation
						End Site
						{
							OFFSET 0.000000 0.000000 0.000000
						}
					}
				}
			}
		}
	}
	JOINT RHipJoint
	{
		OFFSET 0.000000 0.000000 0.000000
		CHANNELS 3 Zrotation Yrotation Xrotation
		JOINT RightUpLeg
		{
			OFFSET -1.305520 -1.794630 0.839290
			CHANNELS 3 Zrotation Yrotation Xrotation
			JOINT RightLeg
			{
				OFFSET -2.542530 -6.985550 0.000000
				CHANNELS 3 Zrotation Yrotation Xrotation
				JOINT RightFoot
				{
					OFFSET -2.568260 -7.056230 0.000000
					CHANNELS 3 Zrotation Yrotation Xrotation
					JOINT RightToeBase
					{
						OFFSET -0.164730 -0.452590 2.363150
						CHANNELS 3 Zrotation Yrotation Xrotation
						End Site
						{
							OFFSET 0.000000 0.000000 0.000000
						}
					}
				}
			}
		}
	}
	JOINT LowerBack
	{
		OFFSET 0.000000 0.000000 0.000000
		CHANNELS 3 Zrotation Yrotation Xrotation
		JOINT Spine
		{
			OFFSET 0.028270 2.035590 -0.193380
			CHANNELS 3 Zrotation Yrotation Xrotation
			JOINT Spine1
			{
				OFFSET 0.056720 2.048850 -0.042750
				CHANNELS 3 Zrotation Yrotation Xrotation
				JOINT Neck
				{
					OFFSET 0.000000 0.000000 0.000000
					CHANNELS 3 Zrotation Yrotation Xrotation
					JOINT Neck1
					{
						OFFSET -0.054170 1.746240 0.172020
						CHANNELS 3 Zrotation Yrotation Xrotation
						JOINT Head
						{
							OFFSET 0.104070 1.761360 -0.123970
							CHANNELS 3 Zrotation Yrotation Xrotation
							End Site
							{
								OFFSET 0.000000 0.000000 0.000000
							}
						}
					}
				}
				JOINT LeftShoulder
				{
					OFFSET 0.000000 0.000000 0.000000
					CHANNELS 3 Zrotation Yrotation Xrotation
					JOINT LeftArm
					{
						OFFSET 3.362410 1.200890 -0.311210
						CHANNELS 3 Zrotation Yrotation Xrotation
						JOINT LeftForeArm
						{
							OFFSET 4.983000 -0.000000 -0.000000
							CHANNELS 3 Zrotation Yrotation Xrotation
							JOINT LeftHand
							{
								OFFSET 3.483560 -0.000000 -0.000000
								CHANNELS 3 Zrotation Yrotation Xrotation
								JOINT LeftFingerBase
								{
									OFFSET 0.000000 0.000000 0.000000
									CHANNELS 3 Zrotation Yrotation Xrotation
									JOINT LeftHandIndex1
									{
										OFFSET 0.715260 -0.000000 -0.000000
										CHANNELS 3 Zrotation Yrotation Xrotation
										End Site
										{
											OFFSET 0.000000 0.000000 0.000000
										}
									}
								}
								JOINT LThumb
								{
									OFFSET 0.000000 0.000000 0.000000
									CHANNELS 3 Zrotation Yrotation Xrotation
									End Site
									{
										OFFSET 0.000000 0.000000 0.000000
									}
								}
							}
						}
					}
				}
				JOINT RightShoulder
				{
					OFFSET 0.000000 0.000000 0.000000
					CHANNELS 3 Zrotation Yrotation Xrotation
					JOINT RightArm
					{
						OFFSET -3.136600 1.374050 -0.404650
						CHANNELS 3 Zrotation Yrotation Xrotation
						JOINT RightForeArm
						{
							OFFSET -5.241900 -0.000000 -0.000000
							CHANNELS 3 Zrotation Yrotation Xrotation
							JOINT RightHand
							{
								OFFSET -3.444170 -0.000000 -0.000000
								CHANNELS 3 Zrotation Yrotation Xrotation
								JOINT RightFingerBase
								{
									OFFSET 0.000000 0.000000 0.000000
									CHANNELS 3 Zrotation Yrotation Xrotation
									JOINT RightHandIndex1
									{
										OFFSET -0.622530 -0.000000 -0.000000
										CHANNELS 3 Zrotation Yrotation Xrotation
										End Site
										{
											OFFSET 0.000000 0.000000 0.000000
										}
									}
								}
								JOINT RThumb
								{
									OFFSET 0.000000 0.000000 0.000000
									CHANNELS 3 Zrotation Yrotation Xrotation
									End Site
									{
										OFFSET 0.000000 0.000000 0.000000
									}
								}
							}
						}
					}
				}
			}
		}
	}
}
MOTION
Frames: 8
Frame Time: 0.008333
14.974258 16.857192 -6.559459 -71.215693 -84.747119 89.406158 3.647171 -0.783287 -1.201135 -13.106747 -13.216124 -50.419008 -0.370977 6.981761 15.165611 -0.095739 3.711026 -6.940068 1.001900 -6.369500 -17.860300 -3.582449 0.612864 -0.853144 33.613953 9.575864 -25.461967 -4.515187 -14.977655 42.286279 -1.130414 -1.810559 -20.472863 -0.127400 -2.301200 6.338900 4.776146 -0.652397 28.161618 1.423968 0.400085 -0.351942 -2.389617 -0.088192 -7.008304 -0.798234 0.868034 -0.375932 6.201774 0.001320 0.308314 0.104700 -0.190700 -1.492400 -5.223097 -6.310732 1.380378 -77.940865 4.243858 27.392168 12.199717 -22.554854 -3.442424 -1.093035 -1.114561 -25.457299 17.440163 10.151976 3.614200 -7.125000 0.000000 0.000000 -7.241100 41.091300 0.702200 7.239342 5.429270 1.014802 77.582168 -1.958515 24.309187 -11.400678 21.939695 -3.063081 1.217525 -0.140048 1.331839 -20.145537 -7.349532 2.797200 7.125000 0.000000 0.000000 4.633400 -37.641400 0.841400 
14.803931 16.834267 -6.543692 -73.635729 -84.704630 91.737255 3.630460 -0.800954 -1.211525 -12.802946 -13.500030 -49.814467 -0.400855 6.875014 14.890389 -0.037867 3.401204 -6.602391 1.038800 -6.482100 -18.189800 -3.564839 0.587721 -0.847388 33.793389 9.338806 -24.647983 -4.494876 -14.920833 42.177938 -1.202308 -1.634009 -20.782056 -0.111100 -2.149500 5.918900 4.795008 -0.615345 28.113736 1.417069 0.445589 -0.340674 -2.434637 -0.066307 -6.956523 -0.776950 0.885951 -0.352966 6.214888 0.026111 0.311768 0.110400 -0.178700 -1.503700 -5.230141 -6.301470 1.386248 -77.901748 4.212691 27.351828 12.162531 -22.513074 -3.429923 -1.096789 -1.115100 -25.382092 17.475050 10.169937 3.628200 -7.125000 0.000000 0.000000 -7.211200 41.114000 0.695200 7.238184 5.419415 1.014625 77.596517 -2.045095 24.276245 -11.383899 21.934301 -3.060002 1.218315 -0.140579 1.341413 -20.182815 -7.340361 2.799000 7.125000 0.000000 0.000000 4.600000 -37.633600 0.836200 
14.631115 16.810098 -6.527613 -76.092435 -84.652749 94.128665 3.617162 -0.817174 -1.218702 -12.480565 -13.795193 -49.221537 -0.419882 6.817460 14.750014 0.034934 3.014090 -6.233126 1.073200 -6.585400 -18.492600 -3.546782 0.562882 -0.842177 33.956183 9.108736 -23.841847 -4.472614 -14.862250 42.060409 -1.276940 -1.434305 -21.067323 -0.095000 -1.987600 5.471500 4.808774 -0.573204 28.042884 1.409881 0.495968 -0.330951 -2.478230 -0.041765 -6.901512 -0.753514 0.905544 -0.333345 6.224962 0.053051 0.316738 0.113600 -0.165500 -1.514000 -5.236285 -6.292105 1.391831 -77.862329 4.177479 27.297232 12.125785 -22.472075 -3.418057 -1.100972 -1.115683 -25.337319 17.521745 10.181267 3.642200 -7.125000 0.000000 0.000000 -7.168800 41.129800 0.688200 7.237071 5.409351 1.014052 77.611066 -2.131051 24.242748 -11.367566 21.929285 -3.056860 1.218643 -0.141265 1.367151 -20.213720 -7.330250 2.799500 7.125000 0.000000 0.000000 4.572400 -37.624600 0.832200 
14.455601 16.785825 -6.511120 -78.572117 -84.590456 96.569175 3.606374 -0.832388 -1.223373 -12.160866 -14.086647 -48.642289 -0.428971 6.803264 14.728346 0.108030 2.620730 -5.818436 1.102500 -6.671600 -18.746200 -3.527466 0.538345 -0.837237 34.100423 8.880543 -23.043187 -4.446050 -14.799205 41.924774 -1.351973 -1.215715 -21.319297 -0.078300 -1.805300 4.967900 4.818753 -0.527536 27.946596 1.402554 0.549286 -0.323112 -2.520276 -0.015306 -6.841727 -0.729497 0.927146 -0.322222 6.230639 0.082797 0.328265 0.113700 -0.150600 -1.519100 -5.241195 -6.282269 1.396544 -77.824871 4.142897 27.227633 12.092158 -22.434495 -3.407252 -1.104217 -1.114976 -25.321606 17.563160 10.165570 3.645300 -7.125000 0.000000 0.000000 -7.127300 41.115600 0.686700 7.235926 5.399254 1.012773 77.625497 -2.218198 24.207465 -11.351753 21.925005 -3.053610 1.217920 -0.142779 1.421196 -20.235996 -7.309743 2.794500 7.125000 0.000000 0.000000 4.551600 -37.603900 0.830700 
14.277598 16.762485 -6.494108 -80.997231 -84.521210 98.981364 3.597106 -0.847212 -1.226166 -11.874055 -14.356797 -48.094439 -0.428061 6.829210 14.816793 0.162355 2.318496 -5.306772 1.121300 -6.726600 -18.907900 -3.505899 0.514180 -0.832108 34.218432 8.647475 -22.253955 -4.413368 -14.729226 41.762535 -1.427654 -0.968954 -21.523466 -0.062500 -1.613400 4.438500 4.825770 -0.482083 27.827291 1.394982 0.601310 -0.318250 -2.561166 0.011092 -6.781307 -0.706227 0.951491 -0.321080 6.231343 0.116443 0.346939 0.110900 -0.133400 -1.517800 -5.244820 -6.272419 1.399869 -77.792321 4.113598 27.141820 12.063688 -22.402502 -3.398579 -1.106947 -1.113787 -25.324724 17.603667 10.138781 3.644200 -7.125000 0.000000 0.000000 -7.085000 41.089000 0.687300 7.234509 5.389917 1.010791 77.638066 -2.302941 24.169316 -11.334179 21.918050 -3.049361 1.216408 -0.144466 1.498542 -20.243912 -7.287213 2.786800 7.125000 0.000000 0.000000 4.543600 -37.580400 0.831800 
14.098039 16.742257 -6.476266 -83.201175 -84.465735 101.199672 3.588524 -0.862131 -1.227425 -11.674696 -14.581620 -47.611384 -0.417435 6.896482 15.016640 0.186243 2.171065 -4.608066 1.126700 -6.742000 -18.953300 -3.480770 0.490499 -0.826459 34.284827 8.393677 -21.482079 -4.373152 -14.650245 41.567966 -1.498807 -0.705276 -21.658376 -0.047000 -1.399900 3.849700 4.820777 -0.443399 27.698934 1.386202 0.641522 -0.317937 -2.601265 0.032400 -6.729634 -0.681970 0.977852 -0.332304 6.224974 0.152942 0.371845 0.103300 -0.114400 -1.508800 -5.247564 -6.263779 1.401335 -77.762955 4.093604 27.047073 12.043862 -22.379900 -3.393033 -1.108956 -1.111831 -25.338271 17.639254 10.099104 3.637200 -7.125000 0.000000 0.000000 -7.045600 41.047800 0.690600 7.232250 5.383105 1.008029 77.648782 -2.381539 24.127316 -11.314246 21.906981 -3.044110 1.214367 -0.146796 1.596388 -20.243593 -7.260536 2.776100 7.125000 0.000000 0.000000 4.542500 -37.551800 0.834800 
13.918168 16.727009 -6.457802 -85.036783 -84.447677 103.073180 3.575546 -0.879095 -1.230339 -11.620671 -14.717148 -47.176602 -0.407014 6.966495 15.226010 0.172529 2.230418 -3.590608 1.101400 -6.668500 -18.737000 -3.448552 0.467614 -0.819071 34.273457 8.113361 -20.719317 -4.316710 -14.551799 41.306518 -1.555075 -0.451308 -21.684477 -0.032100 -1.156900 3.180500 4.789601 -0.417621 27.582483 1.376152 0.658979 -0.322923 -2.633019 0.043377 -6.697320 -0.661561 1.006710 -0.354625 6.214326 0.192514 0.395785 0.093400 -0.093800 -1.495000 -5.249951 -6.258442 1.401071 -77.739464 4.076021 26.944228 12.030586 -22.363399 -3.389916 -1.110889 -1.109277 -25.355246 17.673736 10.055294 3.628400 -7.125000 0.000000 0.000000 -7.006600 41.001600 0.694700 7.228353 5.380529 1.004763 77.663555 -2.446102 24.061154 -11.288811 21.885770 -3.036818 1.212082 -0.150467 1.724574 -20.241009 -7.230673 2.763500 7.125000 0.000000 0.000000 4.543100 -37.518700 0.838600 
13.739543 16.718399 -6.438612 -86.269000 -84.502915 104.366174 3.563192 -0.895737 -1.231468 -11.734746 -14.782174 -46.876711 -0.386979 7.080589 15.549293 0.131046 2.470859 -2.351722 1.035900 -6.473400 -18.164200 -3.413781 0.445722 -0.811042 34.153352 7.812203 -19.999828 -4.259476 -14.450655 41.038437 -1.596569 -0.209976 -21.606709 -0.018500 -0.878900 2.415600 4.715257 -0.411608 27.502765 1.363846 0.641000 -0.334120 -2.652702 0.037899 -6.697390 -0.649274 1.035318 -0.388869 6.202652 0.231501 0.409255 0.083800 -0.073900 -1.479500 -5.253570 -6.258973 1.399363 -77.717609 4.049276 26.842010 12.021665 -22.348675 -3.387900 -1.113412 -1.105240 -25.365128 17.710987 10.001264 3.616000 -7.125000 0.000000 0.000000 -6.963400 40.943400 0.700500 7.222177 5.384574 1.001454 77.681861 -2.486992 23.971046 -11.255784 21.850150 -3.026899 1.210899 -0.155182 1.860281 -20.249961 -7.208472 2.755300 7.125000 0.000000 0.000000 4.533600 -37.493700 0.839600 
